<?xml version="1.0" encoding="iso-8859-1"?>
<!-- Generator: Adobe Illustrator 16.0.0, SVG Export Plug-In . SVG Version: 6.00 Build 0)  -->
<!DOCTYPE svg PUBLIC "-//W3C//DTD SVG 1.1//EN" "http://www.w3.org/Graphics/SVG/1.1/DTD/svg11.dtd">
<svg version="1.1" id="Capa_1" xmlns="http://www.w3.org/2000/svg" xmlns:xlink="http://www.w3.org/1999/xlink" x="0px" y="0px"
	 width="611.997px" height="611.997px" viewBox="0 0 611.997 611.997" style="enable-background:new 0 0 611.997 611.997;"
	 xml:space="preserve">
<g>
	<g id="_x34__24_">
		<g>
			<path d="M157.113,397.291L51.241,311.692l105.872-85.599c8.035-7.832,8.035-20.538,0-28.37c-8.036-7.832-21.048-7.832-29.084,0
				L5.841,296.498c-4.283,4.181-6.098,9.729-5.812,15.195c-0.286,5.466,1.529,11.013,5.812,15.194l122.188,98.774
				c8.036,7.831,21.048,7.831,29.084,0C165.148,417.829,165.148,405.123,157.113,397.291z M447.929,43.434
				c-9.749-5.527-22.23-2.244-27.859,7.322l-254.941,491.26c-5.629,9.565-3.304,24.188,7.465,27.31
				c13.176,3.813,22.231,2.243,27.86-7.322l254.94-491.26C461.043,61.157,457.698,48.94,447.929,43.434z M606.135,296.498
				l-122.167-98.794c-8.036-7.832-21.048-7.832-29.084,0c-8.036,7.832-8.036,20.538,0,28.37l105.872,85.599l-105.872,85.599
				c-8.036,7.832-8.036,20.538,0,28.37c8.035,7.831,21.048,7.831,29.084,0l122.188-98.774c4.283-4.181,6.099-9.729,5.812-15.194
				C612.254,306.226,610.418,300.679,606.135,296.498z"/>
		</g>
	</g>
</g>
<g>
</g>
<g>
</g>
<g>
</g>
<g>
</g>
<g>
</g>
<g>
</g>
<g>
</g>
<g>
</g>
<g>
</g>
<g>
</g>
<g>
</g>
<g>
</g>
<g>
</g>
<g>
</g>
<g>
</g>
</svg>
