<svg height="480pt" viewBox="0 0 480 480" width="480pt" xmlns="http://www.w3.org/2000/svg"><path d="m456 8h-432c-8.835938 0-16 7.164062-16 16v80h464v-80c0-8.835938-7.164062-16-16-16zm-400 64c-8.835938 0-16-7.164062-16-16s7.164062-16 16-16 16 7.164062 16 16-7.164062 16-16 16zm64 0c-8.835938 0-16-7.164062-16-16s7.164062-16 16-16 16 7.164062 16 16-7.164062 16-16 16zm64 0c-8.835938 0-16-7.164062-16-16s7.164062-16 16-16 16 7.164062 16 16-7.164062 16-16 16zm0 0" fill="#bddbff"/><path d="m8 456c0 8.835938 7.164062 16 16 16h432c8.835938 0 16-7.164062 16-16v-352h-464zm76.558594-284.800781 31.921875 31.921875 17.039062-5.601563 5.601563-17.039062-31.921875-31.921875c16.886719-8.066406 36.921875-5.566406 51.3125 6.398437 14.386719 11.964844 20.5 31.207031 15.648437 49.28125l55.519532 55.523438 64.71875-64.722657 14.585937 14.5625-25.90625-25.914062-73.542969 16.953125 79.367188-59.570313c6.378906-4.757812 15.28125-4.128906 20.929687 1.472657l46.785157 46.777343v11.320313l11.3125 11.3125 16.972656-5.65625 16.96875 16.96875-45.253906 45.253906-16.96875-16.96875 5.65625-16.976562-11.3125-11.308594h-11.3125l-5.601563-5.601563v.046876l-64.757813 64.6875 55.441407 55.441406c18.074219-4.851563 37.316406 1.261718 49.28125 15.648437 11.964843 14.390625 14.464843 34.425781 6.398437 51.3125l-31.921875-31.921875-17.039062 5.601563-5.601563 17.039062 31.921875 31.921875c-16.886719 8.066406-36.921875 5.566406-51.3125-6.398437-14.386719-11.964844-20.5-31.207031-15.648437-49.28125l-55.441406-55.441407-20.160157 20.078126-22.636719-22.636719 20.160157-20.082031-55.523438-55.519532c-18.074219 4.851563-37.316406-1.261718-49.28125-15.648437-11.964843-14.390625-14.464843-34.425781-6.398437-51.3125zm-2.78125 213.769531 82.511718-82.503906 45.246094 45.246094-82.503906 82.511718c-6.25 6.253906-16.382812 6.253906-22.632812 0l-22.621094-22.621094c-6.253906-6.25-6.253906-16.382812 0-22.632812zm0 0" fill="#d1e7f8"/><path d="m72 56c0 8.835938-7.164062 16-16 16s-16-7.164062-16-16 7.164062-16 16-16 16 7.164062 16 16zm0 0" fill="#bddbff"/><path d="m136 56c0 8.835938-7.164062 16-16 16s-16-7.164062-16-16 7.164062-16 16-16 16 7.164062 16 16zm0 0" fill="#bddbff"/><path d="m200 56c0 8.835938-7.164062 16-16 16s-16-7.164062-16-16 7.164062-16 16-16 16 7.164062 16 16zm0 0" fill="#bddbff"/><path d="m140.238281 238.160156 55.523438 55.519532 22.636719 22.640624 55.441406 55.441407c-4.851563 18.074219 1.261718 37.316406 15.648437 49.28125 14.390625 11.964843 34.425781 14.464843 51.3125 6.398437l-31.921875-31.921875 5.601563-17.039062 17.039062-5.601563 31.921875 31.921875c8.066406-16.886719 5.566406-36.921875-6.398437-51.3125-11.964844-14.386719-31.207031-20.5-49.28125-15.648437l-55.441407-55.441406-22.640624-22.636719-55.519532-55.523438c4.851563-18.074219-1.261718-37.316406-15.648437-49.28125-14.390625-11.964843-34.425781-14.464843-51.3125-6.398437l31.921875 31.921875-5.601563 17.039062-17.039062 5.601563-31.921875-31.921875c-8.066406 16.886719-5.566406 36.921875 6.398437 51.3125 11.964844 14.386719 31.207031 20.5 49.28125 15.648437zm0 0" fill="#ff6243"/><path d="m104.398438 430.222656c6.25 6.253906 16.382812 6.253906 22.632812 0l82.503906-82.511718-45.246094-45.246094-82.511718 82.503906c-6.253906 6.25-6.253906 16.382812 0 22.632812zm0 0" fill="#57565c"/><path d="m317.039062 217.601562 5.601563 5.597657h11.3125l11.3125 11.3125-5.65625 16.976562 16.964844 16.96875 45.257812-45.257812-16.96875-16.96875-16.976562 5.65625-11.269531-11.246094v-11.320313l-46.785157-46.777343c-5.648437-5.601563-14.550781-6.230469-20.929687-1.472657l-79.367188 59.570313 73.542969-16.976563 25.90625 25.9375zm0 0" fill="#898890"/><path d="m175.601562 313.761719 22.636719 22.636719 20.160157-20.078126-22.636719-22.640624zm0 0" fill="#f1f2f2"/><path d="m317.039062 217.679688v-.046876l-8.054687-8.058593-14.585937-14.535157-64.71875 64.722657 22.640624 22.636719zm0 0" fill="#f1f2f2"/><path d="m317.039062 217.601562-8.054687-8.027343 8.054687 8.058593zm0 0" fill="#ffda44"/><g fill="#231f20"><path d="m456 0h-432c-13.253906 0-24 10.746094-24 24v432c0 13.253906 10.746094 24 24 24h432c13.253906 0 24-10.746094 24-24v-432c0-13.253906-10.746094-24-24-24zm-440 24c0-4.417969 3.582031-8 8-8h432c4.417969 0 8 3.582031 8 8v72h-448zm448 432c0 4.417969-3.582031 8-8 8h-432c-4.417969 0-8-3.582031-8-8v-344h448zm0 0"/><path d="m56 32c-13.253906 0-24 10.746094-24 24s10.746094 24 24 24 24-10.746094 24-24-10.746094-24-24-24zm0 32c-4.417969 0-8-3.582031-8-8s3.582031-8 8-8 8 3.582031 8 8-3.582031 8-8 8zm0 0"/><path d="m120 32c-13.253906 0-24 10.746094-24 24s10.746094 24 24 24 24-10.746094 24-24-10.746094-24-24-24zm0 32c-4.417969 0-8-3.582031-8-8s3.582031-8 8-8 8 3.582031 8 8-3.582031 8-8 8zm0 0"/><path d="m184 32c-13.253906 0-24 10.746094-24 24s10.746094 24 24 24 24-10.746094 24-24-10.746094-24-24-24zm0 32c-4.417969 0-8-3.582031-8-8s3.582031-8 8-8 8 3.582031 8 8-3.582031 8-8 8zm0 0"/><path d="m169.945312 296.800781c-3.125-3.125-8.1875-3.125-11.3125 0l-82.519531 82.511719c-9.375 9.371094-9.375 24.570312 0 33.945312l22.621094 22.621094c9.375 9.375 24.574219 9.375 33.945313 0l82.519531-82.503906c3.125-3.121094 3.125-8.1875 0-11.3125l-5.640625-5.648438 8.800781-8.796874 46.6875 46.6875c-2.917969 16.304687 1.535156 33.070312 12.160156 45.777343 10.625 12.710938 26.332031 20.066407 42.898438 20.085938 8.359375.003906 16.613281-1.886719 24.140625-5.527344 2.335937-1.125 3.976562-3.3125 4.410156-5.863281.433594-2.554688-.394531-5.160156-2.222656-6.992188l-28.441406-28.441406 2.808593-8.542969 8.519531-2.800781 28.449219 28.441406c1.832031 1.832032 4.4375 2.664063 6.996094 2.230469 2.554687-.433594 4.742187-2.082031 5.867187-4.414063 9.058594-18.933593 6.757813-41.347656-5.964843-58.042968-12.71875-16.695313-33.714844-24.867188-54.371094-21.160156l-46.664063-46.65625 53.4375-53.4375c1.496094 1.472656 3.503907 2.296874 5.601563 2.304687h8l5.480469 5.476563-4.097656 12.273437c-.953126 2.875-.207032 6.042969 1.9375 8.183594l16.96875 16.976562c3.125 3.125 8.1875 3.125 11.3125 0l45.253906-45.253906c3.125-3.125 3.125-8.191406 0-11.3125l-16.96875-16.96875c-2.144532-2.144531-5.316406-2.890625-8.191406-1.929687l-12.277344 4.089843-5.472656-5.472656v-8c0-2.121094-.84375-4.15625-2.34375-5.65625l-46.777344-46.792969c-8.453125-8.449218-21.839844-9.390625-31.390625-2.207031l-79.371094 59.566406c-3.03125 2.269531-4.058594 6.347657-2.464844 9.78125 1.597657 3.433594 5.378907 5.277344 9.066407 4.421875l69.214843-16 2.5625 2.550782-53.433593 53.441406-46.75-46.753906c3.695312-20.65625-4.476563-41.644532-21.171876-54.359376-16.691406-12.714843-39.097656-15.019531-58.03125-5.96875-2.324218 1.132813-3.957031 3.320313-4.382812 5.871094-.429688 2.550782.402344 5.148438 2.230469 6.976563l28.441406 28.441406-2.816406 8.558594-8.519531 2.800781-28.449219-28.441406c-1.832031-1.832032-4.4375-2.664063-6.996094-2.230469-2.554687.433594-4.742187 2.082031-5.867187 4.414063-9.058594 18.933593-6.757813 41.347656 5.964843 58.042968 12.71875 16.695313 33.714844 24.867188 54.371094 21.160156l46.753906 46.75-8.800781 8.800782zm74.640626-112.464843 49.070312-36.839844c3.191406-2.417969 7.671875-2.125 10.519531.6875l44.441407 44.441406v8c0 2.121094.84375 4.15625 2.34375 5.65625l11.3125 11.320312c2.140624 2.136719 5.308593 2.882813 8.183593 1.925782l12.285157-4.078125 7.816406 7.808593-33.941406 33.941407-7.816407-7.816407 4.09375-12.277343c.960938-2.878907.210938-6.050781-1.933593-8.195313l-11.3125-11.308594c-1.5-1.503906-3.535157-2.34375-5.65625-2.34375h-8l-3.25-3.25-.054688-.078124-33.953125-33.929688c-1.953125-1.945312-4.765625-2.753906-7.453125-2.144531zm49.820312 22 9.488281 9.449218 1.859375 1.855469-53.433594 53.4375-11.328124-11.316406zm-154.167969 23.824218c-.699219 0-1.398437.089844-2.078125.273438-12.960937 3.453125-26.792968.183594-36.832031-8.714844s-14.953125-22.234375-13.082031-35.519531l22.578125 22.601562c2.132812 2.132813 5.285156 2.882813 8.152343 1.941407l17.039063-5.597657c2.425781-.800781 4.320313-2.714843 5.105469-5.144531l5.597656-17.046875c.941406-2.867187.191406-6.019531-1.941406-8.152344l-22.609375-22.609375c13.296875-1.890625 26.65625 3.019532 35.566406 13.070313 8.90625 10.050781 12.179687 23.898437 8.707031 36.875-.746094 2.761719.039063 5.710937 2.0625 7.734375l133.601563 133.601562c2.027343 2.011719 4.972656 2.796875 7.734375 2.0625 12.960937-3.453125 26.792968-.183594 36.832031 8.714844s14.953125 22.234375 13.082031 35.519531l-22.578125-22.570312c-2.132812-2.132813-5.285156-2.882813-8.152343-1.941407l-17.039063 5.597657c-2.425781.800781-4.320313 2.714843-5.105469 5.144531l-5.597656 17.046875c-.941406 2.867187-.191406 6.019531 1.941406 8.152344l22.578125 22.578125c-13.285156 1.863281-26.617187-3.058594-35.507812-13.101563s-12.15625-23.875-8.691407-36.835937c.742188-2.761719-.042968-5.710938-2.066406-7.734375l-133.597656-133.601563c-1.511719-1.511718-3.5625-2.355468-5.699219-2.34375zm46.691407 83.609375 8.796874-8.800781 11.328126 11.328125-8.796876 8.800781zm-65.554688 110.796875c-1.5 1.503906-3.535156 2.347656-5.660156 2.347656-2.121094 0-4.160156-.84375-5.660156-2.347656l-22.621094-22.621094c-1.503906-1.5-2.347656-3.539062-2.347656-5.660156 0-2.125.84375-4.160156 2.347656-5.660156l76.855468-76.847656 33.933594 33.941406zm0 0"/></g></svg>