<svg id="Capa_1" enable-background="new 0 0 512 512" height="512" viewBox="0 0 512 512" width="512" xmlns="http://www.w3.org/2000/svg"><circle cx="256" cy="256" fill="#4a7aff" r="256"/><path d="m510.18 286.683-113.82-113.82-89.739 53.71-141.274-141.274-40.501 24.48-24.48 40.501 122.255 122.255-106.981 74.014 14.726 15.17-30 64.981 70.967 70.967c26.502 9.285 54.995 14.333 84.667 14.333 131.001 0 239.02-98.398 254.18-225.317z" fill="#0053bf"/><path d="m512 256c0-29.672-5.049-58.166-14.333-84.668l-86.033-86.033-64.981 30 164.276 164.276c.709-7.763 1.071-15.627 1.071-23.575z" fill="#0053bf"/><path d="m115.64 346.549 140.36 77.539 140.36-77.539v-173.686h-280.72z" fill="#ff475a"/><path d="m256 172.863h-140.36v173.686l140.36 77.539z" fill="#ffce00"/><path d="m256 250.401-140.36-77.538 140.36-77.539 140.36 77.539z" fill="#b5efff"/><path d="m256 250.401 140.36-77.538-140.36-77.539z" fill="#80dbff"/><path d="m130.366 150.281h-30v-64.982h64.981v30h-34.981z" fill="#fff"/><path d="m411.634 150.281h-30v-34.982h-34.981v-30h64.981z" fill="#e9edf5"/><path d="m411.634 426.7h-64.981v-30h34.981v-34.981h30z" fill="#e9edf5"/><path d="m165.347 426.7h-64.981v-64.981h30v34.981h34.981z" fill="#fff"/></svg>